<svg width="10" height="10" viewBox="0 0 10 10" fill="none" xmlns="http://www.w3.org/2000/svg">
<path d="M8.44018 2.81544L8.44019 2.81543C8.48085 2.77477 8.52912 2.74251 8.58225 2.72051C8.63538 2.6985 8.69232 2.68718 8.74983 2.68718C8.80733 2.68718 8.86427 2.6985 8.9174 2.72051C8.97053 2.74251 9.0188 2.77477 9.05947 2.81543C9.10013 2.85609 9.13238 2.90437 9.15439 2.95749C9.1764 3.01062 9.18772 3.06757 9.18772 3.12507C9.18772 3.18257 9.1764 3.23952 9.15439 3.29265C9.13238 3.34577 9.10013 3.39405 9.05947 3.43471L5.30958 7.1846L5.30946 7.18471L5.22108 7.09632C5.19205 7.12542 5.15756 7.14851 5.1196 7.16427C5.08163 7.18002 5.04093 7.18813 4.99983 7.18813C4.95872 7.18813 4.91802 7.18002 4.88006 7.16427C4.84209 7.14851 4.80761 7.12542 4.77858 7.09632L8.44018 2.81544ZM8.44018 2.81544L4.99983 6.2564L1.55958 2.81554L1.47108 2.90382L1.55947 2.81544L1.55953 2.81549C1.5189 2.77477 1.47064 2.74247 1.41751 2.72042C1.36435 2.69836 1.30737 2.68701 1.24983 2.68701C1.19228 2.68701 1.1353 2.69836 1.08215 2.72042C1.02899 2.74248 0.980716 2.7748 0.940076 2.81554L1.02858 2.90382L0.9403 2.81532C0.899557 2.85596 0.867232 2.90424 0.845176 2.95739C0.823121 3.01054 0.811768 3.06752 0.811768 3.12507C0.811768 3.18262 0.823121 3.2396 0.845176 3.29275C0.86722 3.34587 0.899521 3.39413 0.940232 3.43475L8.44018 2.81544Z" fill="#272727" stroke="#272727" stroke-width="0.25"/>
</svg>
