<svg width="10" height="10" viewBox="0 0 10 10" fill="none" xmlns="http://www.w3.org/2000/svg">
<path fill-rule="evenodd" clip-rule="evenodd" d="M2.90358 1.02882C2.9326 0.999718 2.96709 0.976629 3.00505 0.960875C3.04302 0.945121 3.08372 0.937012 3.12483 0.937012C3.16593 0.937012 3.20663 0.945121 3.2446 0.960875C3.28256 0.976629 3.31705 0.999718 3.34608 1.02882L7.09607 4.77882C7.12518 4.80785 7.14827 4.84233 7.16402 4.8803C7.17977 4.91827 7.18788 4.95897 7.18788 5.00007C7.18788 5.04118 7.17977 5.08188 7.16402 5.11984C7.14827 5.15781 7.12518 5.19229 7.09607 5.22132L3.34608 8.97132C3.2874 9.03 3.20781 9.06297 3.12483 9.06297C3.04184 9.06297 2.96226 9.03 2.90358 8.97132C2.8449 8.91264 2.81193 8.83306 2.81193 8.75007C2.81193 8.66709 2.8449 8.5875 2.90358 8.52882L6.43295 5.00007L2.90358 1.47132C2.87447 1.44229 2.85138 1.40781 2.83563 1.36984C2.81988 1.33188 2.81177 1.29117 2.81177 1.25007C2.81177 1.20897 2.81988 1.16827 2.83563 1.1303C2.85138 1.09233 2.87447 1.05785 2.90358 1.02882Z" fill="black"/>
</svg>
