<svg width="25" height="28" viewBox="0 0 25 28" fill="none" xmlns="http://www.w3.org/2000/svg">
<path d="M23.4401 11.8154L23.4401 11.8154C23.4807 11.7748 23.529 11.7425 23.5821 11.7205C23.6353 11.6985 23.6922 11.6872 23.7497 11.6872C23.8072 11.6872 23.8642 11.6985 23.9173 11.7205C23.9704 11.7425 24.0187 11.7748 24.0594 11.8154C24.1 11.8561 24.1323 11.9044 24.1543 11.9575C24.1763 12.0106 24.1876 12.0676 24.1876 12.1251C24.1876 12.1826 24.1763 12.2395 24.1543 12.2926C24.1323 12.3458 24.1 12.394 24.0594 12.4347L20.3095 16.1846L20.3094 16.1847L20.221 16.0963C20.1919 16.1254 20.1575 16.1485 20.1195 16.1643C20.0815 16.18 20.0408 16.1881 19.9997 16.1881C19.9586 16.1881 19.9179 16.18 19.8799 16.1643C19.842 16.1485 19.8075 16.1254 19.7785 16.0963L23.4401 11.8154ZM23.4401 11.8154L19.9997 15.2564L16.5595 11.8155L16.471 11.9038L16.5594 11.8154L16.5594 11.8155C16.5188 11.7748 16.4705 11.7425 16.4174 11.7204C16.3642 11.6984 16.3073 11.687 16.2497 11.687C16.1922 11.687 16.1352 11.6984 16.082 11.7204C16.0289 11.7425 15.9806 11.7748 15.94 11.8155L16.0285 11.9038L15.9402 11.8153C15.8995 11.856 15.8671 11.9042 15.8451 11.9574C15.823 12.0105 15.8117 12.0675 15.8117 12.1251C15.8117 12.1826 15.823 12.2396 15.8451 12.2927C15.8671 12.3459 15.8994 12.3941 15.9401 12.4348L23.4401 11.8154Z" fill="#1D252C" stroke="#1D252C" stroke-width="0.25"/>
<line x1="0.125" y1="0.125" x2="0.125" y2="27.875" stroke="#898989" stroke-opacity="0.5" stroke-width="0.25" stroke-linecap="round"/>
</svg>
